# xmcd
#
# Track frame offsets:
#  150
#  19084
#  38436
#  59899
#  73686
#  95522
#  115050
#  132671
#  147804
#  171471
#  190600
#  206518
#  226315
#  249147
#
# Disc length: 3578 seconds
#
# Revision: 0
# Processed by: cddbd v1.5.1PL2 Copyright (c) Steve Scherf et al.
# Submitted via: Collectorz.com_Music_Collector 6.9
#
DISCID=c40df80e
DTITLE=Julie Elkins and Dave Thompson - My Feet Won't Miss This Ground
DYEAR=2005
DGENRE=Americana
TTITLE0=Midnight Trains
TTITLE1=Life Sentence
TTITLE2=Carolina Is Gone
TTITLE3=As the Crow Flies
TTITLE4=Whiskey Bottle Home
TTITLE5=My Runaway
TTITLE6=Old Man Winter
TTITLE7=500 Times
TTITLE8=Spanish Peaks, China Moon
TTITLE9=Mercy Railroad
TTITLE10=One More Road
TTITLE11=When the Mist Comes Again/The Black River Jig
TTITLE12=December
TTITLE13=Not Coming Down
EXTD=
EXTT0=
EXTT1=
EXTT2=
EXTT3=
EXTT4=
EXTT5=
EXTT6=
EXTT7=
EXTT8=
EXTT9=
EXTT10=
EXTT11=
EXTT12=
EXTT13=
PLAYORDER=
